<svg id="Camada_1" data-name="Camada 1" xmlns="http://www.w3.org/2000/svg" xmlns:xlink="http://www.w3.org/1999/xlink" viewBox="0 0 1008.04 1008.04"><defs><style>.cls-1{fill:none;}.cls-2{clip-path:url(#clip-path);}.cls-3{fill:#ed6d1e;}.cls-4{fill:#ed6e1e;}.cls-5{fill:#ed6f1f;}.cls-6{fill:#ee701f;}.cls-7{fill:#ee7120;}.cls-8{fill:#ee7220;}.cls-9{fill:#ee7321;}.cls-10{fill:#ee7421;}.cls-11{fill:#ee7522;}.cls-12{fill:#ee7622;}.cls-13{fill:#e72;}.cls-14{fill:#ef7823;}.cls-15{fill:#ef7924;}.cls-16{fill:#ef7a24;}.cls-17{fill:#ef7b25;}.cls-18{fill:#ef7c25;}.cls-19{fill:#ef7d26;}.cls-20{fill:#f07e26;}.cls-21{fill:#f07f27;}.cls-22{fill:#f08028;}.cls-23{fill:#f08129;}.cls-24{fill:#f08229;}.cls-25{fill:#f0832a;}.cls-26{fill:#f1842a;}.cls-27{fill:#f1852b;}.cls-28{fill:#f1862b;}.cls-29{fill:#f1862c;}.cls-30{fill:#f1872c;}.cls-31{fill:#f1882d;}.cls-32{fill:#f1892d;}.cls-33{fill:#f28a2e;}.cls-34{fill:#f28b2e;}.cls-35{fill:#f28c2f;}.cls-36{fill:#f28d2f;}.cls-37{fill:#f28d30;}.cls-38{fill:#f28e30;}.cls-39{fill:#f38f31;}.cls-40{fill:#f39032;}.cls-41{fill:#f39132;}.cls-42{fill:#f39233;}.cls-43{fill:#f39333;}.cls-44{fill:#f39434;}.cls-45{fill:#f49534;}.cls-46{fill:#f49535;}.cls-47{fill:#f49635;}.cls-48{fill:#f49736;}.cls-49{fill:#f49836;}.cls-50{fill:#f49937;}.cls-51{fill:#f59a38;}.cls-52{fill:#f59b38;}.cls-53{fill:#f59b39;}.cls-54{fill:#f59c39;}.cls-55{fill:#f59d3a;}.cls-56{fill:#f59e3a;}.cls-57{fill:#f59f3b;}.cls-58{fill:#f6a03c;}.cls-59{fill:#f6a13d;}.cls-60{fill:#fff;}</style><clipPath id="clip-path" transform="translate(-7.98 -7.98)"><rect class="cls-1" x="7.98" y="7.98" width="1008.04" height="1008.04" rx="100.8"/></clipPath></defs><g class="cls-2"><polygon class="cls-3" points="0 948.82 59.22 1008.04 0 1008.04 0 948.82"/><polygon class="cls-3" points="0 917.19 90.85 1008.04 59.22 1008.04 0 948.82 0 917.19"/><polygon class="cls-4" points="0 885.57 122.48 1008.04 90.85 1008.04 0 917.19 0 885.57"/><polygon class="cls-5" points="0 853.94 154.1 1008.04 122.48 1008.04 0 885.57 0 853.94"/><polygon class="cls-6" points="0 822.31 185.73 1008.04 154.1 1008.04 0 853.94 0 822.31"/><polygon class="cls-7" points="0 790.68 217.36 1008.04 185.73 1008.04 0 822.31 0 790.68"/><polygon class="cls-8" points="0 759.06 248.99 1008.04 217.36 1008.04 0 790.68 0 759.06"/><polygon class="cls-9" points="0 727.43 280.61 1008.04 248.99 1008.04 0 759.06 0 727.43"/><polygon class="cls-10" points="0 695.8 312.24 1008.04 280.61 1008.04 0 727.43 0 695.8"/><polygon class="cls-11" points="0 664.17 343.87 1008.04 312.24 1008.04 0 695.8 0 664.17"/><polygon class="cls-12" points="0 632.55 375.5 1008.04 343.87 1008.04 0 664.17 0 632.55"/><polygon class="cls-13" points="0 600.92 407.12 1008.04 375.5 1008.04 0 632.55 0 600.92"/><polygon class="cls-14" points="0 569.29 438.75 1008.04 407.12 1008.04 0 600.92 0 569.29"/><polygon class="cls-14" points="0 537.66 470.38 1008.04 438.75 1008.04 0 569.29 0 537.66"/><polygon class="cls-15" points="0 506.04 502.01 1008.04 470.38 1008.04 0 537.66 0 506.04"/><polygon class="cls-16" points="0 474.41 533.63 1008.04 502.01 1008.04 0 506.04 0 474.41"/><polygon class="cls-17" points="0 442.78 565.26 1008.04 533.63 1008.04 0 474.41 0 442.78"/><polygon class="cls-18" points="0 411.16 596.89 1008.04 565.26 1008.04 0 442.78 0 411.16"/><polygon class="cls-19" points="0 379.53 628.51 1008.04 596.89 1008.04 0 411.16 0 379.53"/><polygon class="cls-20" points="0 347.9 660.14 1008.04 628.51 1008.04 0 379.53 0 347.9"/><polygon class="cls-21" points="0 316.27 691.77 1008.04 660.14 1008.04 0 347.9 0 316.27"/><polygon class="cls-22" points="0 284.65 723.4 1008.04 691.77 1008.04 0 316.27 0 284.65"/><polygon class="cls-22" points="0 253.02 755.02 1008.04 723.4 1008.04 0 284.65 0 253.02"/><polygon class="cls-23" points="0 221.39 786.65 1008.04 755.02 1008.04 0 253.02 0 221.39"/><polygon class="cls-24" points="0 189.76 818.28 1008.04 786.65 1008.04 0 221.39 0 189.76"/><polygon class="cls-25" points="0 158.14 849.91 1008.04 818.28 1008.04 0 189.76 0 158.14"/><polygon class="cls-26" points="0 126.51 881.53 1008.04 849.91 1008.04 0 158.14 0 126.51"/><polygon class="cls-27" points="0 94.88 913.16 1008.04 881.53 1008.04 0 126.51 0 94.88"/><polygon class="cls-28" points="0 63.26 944.79 1008.04 913.16 1008.04 0 94.88 0 63.26"/><polygon class="cls-29" points="0 31.63 976.42 1008.04 944.79 1008.04 0 63.26 0 31.63"/><polygon class="cls-30" points="0 11.83 5.92 5.92 1002.13 1002.13 996.21 1008.04 976.42 1008.04 0 31.63 0 11.83"/><polygon class="cls-31" points="5.92 5.92 11.83 0 31.63 0 1008.04 976.42 1008.04 996.21 1002.13 1002.13 5.92 5.92"/><polygon class="cls-32" points="63.26 0 1008.04 944.79 1008.04 976.42 31.63 0 63.26 0"/><polygon class="cls-33" points="94.88 0 1008.04 913.16 1008.04 944.79 63.26 0 94.88 0"/><polygon class="cls-34" points="126.51 0 1008.04 881.53 1008.04 913.16 94.88 0 126.51 0"/><polygon class="cls-35" points="158.14 0 1008.04 849.91 1008.04 881.53 126.51 0 158.14 0"/><polygon class="cls-36" points="189.76 0 1008.04 818.28 1008.04 849.91 158.14 0 189.76 0"/><polygon class="cls-37" points="221.39 0 1008.04 786.65 1008.04 818.28 189.76 0 221.39 0"/><polygon class="cls-38" points="253.02 0 1008.04 755.02 1008.04 786.65 221.39 0 253.02 0"/><polygon class="cls-39" points="284.65 0 1008.04 723.4 1008.04 755.02 253.02 0 284.65 0"/><polygon class="cls-40" points="316.27 0 1008.04 691.77 1008.04 723.4 284.65 0 316.27 0"/><polygon class="cls-41" points="347.9 0 1008.04 660.14 1008.04 691.77 316.27 0 347.9 0"/><polygon class="cls-42" points="379.53 0 1008.04 628.51 1008.04 660.14 347.9 0 379.53 0"/><polygon class="cls-43" points="411.16 0 1008.04 596.89 1008.04 628.51 379.53 0 411.16 0"/><polygon class="cls-44" points="442.78 0 1008.04 565.26 1008.04 596.89 411.16 0 442.78 0"/><polygon class="cls-45" points="474.41 0 1008.04 533.63 1008.04 565.26 442.78 0 474.41 0"/><polygon class="cls-46" points="506.04 0 1008.04 502.01 1008.04 533.63 474.41 0 506.04 0"/><polygon class="cls-47" points="537.66 0 1008.04 470.38 1008.04 502.01 506.04 0 537.66 0"/><polygon class="cls-48" points="569.29 0 1008.04 438.75 1008.04 470.38 537.66 0 569.29 0"/><polygon class="cls-49" points="600.92 0 1008.04 407.12 1008.04 438.75 569.29 0 600.92 0"/><polygon class="cls-50" points="632.55 0 1008.04 375.5 1008.04 407.12 600.92 0 632.55 0"/><polygon class="cls-51" points="664.17 0 1008.04 343.87 1008.04 375.5 632.55 0 664.17 0"/><polygon class="cls-52" points="695.8 0 1008.04 312.24 1008.04 343.87 664.17 0 695.8 0"/><polygon class="cls-53" points="727.43 0 1008.04 280.61 1008.04 312.24 695.8 0 727.43 0"/><polygon class="cls-54" points="759.06 0 1008.04 248.99 1008.04 280.61 727.43 0 759.06 0"/><polygon class="cls-55" points="790.68 0 1008.04 217.36 1008.04 248.99 759.06 0 790.68 0"/><polygon class="cls-56" points="822.31 0 1008.04 185.73 1008.04 217.36 790.68 0 822.31 0"/><polygon class="cls-57" points="853.94 0 1008.04 154.1 1008.04 185.73 822.31 0 853.94 0"/><polygon class="cls-58" points="885.57 0 1008.04 122.48 1008.04 154.1 853.94 0 885.57 0"/><polygon class="cls-58" points="917.19 0 1008.04 90.85 1008.04 122.48 885.57 0 917.19 0"/><polygon class="cls-59" points="948.82 0 1008.04 59.22 1008.04 90.85 917.19 0 948.82 0"/><polygon class="cls-59" points="1008.04 59.22 948.82 0 1008.04 0 1008.04 59.22"/></g><path class="cls-60" d="M866.63,106l-7-2.73A518,518,0,0,0,601.61,70.86C432.76,93.28,284,197.79,159.55,381.46l-1.12,1.66-.25,2c-1.56,12.66-1.82,26.19,8,30.6,11.22,5,23.7-5.73,48.66-33.61-11.36,29.54-15.42,62.09-7,95.87,1.24,5,3.82,15.27,12.74,15.75l.71,0c9.9,0,14.07-11.41,25.93-43.78,7.07-19.31,15.87-43.34,27.89-70.09,14.55-32.35,44.37-53.69,67.91-68.55-11.14,24.81-19.07,49.32-14.47,86.73,6.27,51.05,54.49,96.56,99.45,93.75l15.6-1-9.55-12.38c-44.43-57.55-56.38-102.81-32.8-124.16,22.31-20.18,72.61-14.68,99.7,10.89,24.53,23.16,22.68,55-5.23,89.63l-4,5L495.6,465c12.09,16.11,25.77,14,32.87,11.26,31.28-12,57-78.92,54.25-111-2.18-25.12-13.1-48.27-23.66-70.66-10.69-22.67-21.75-46.11-24.19-72.12-1.39-14.79,5.73-26.62,21.76-36.16,64.83-38.6,234.93-19.55,297,22L866.53,217V201.42c0-18-.07-31.82-.13-43.39-.1-18-.16-31,.13-46.29ZM548.13,172c-21.49,12.79-31.79,30.77-29.8,52,2.71,28.91,14.39,53.69,25.7,77.66,10.4,22,20.22,42.85,22.14,65,2.42,27.78-22,85.76-43.64,94a8.91,8.91,0,0,1-9.37-1.26c41.41-56,13.57-92.88-.75-106.39-33.86-32-93.27-37.37-122.24-11.13-17.06,15.44-35.85,52.55,19.55,131.41-30.78-8.29-60.25-41.74-64.62-77.34-4.91-40,6-63.14,19.9-92.43,1.67-3.51,3.37-7.1,5.08-10.8l12.61-27.24-24.82,16.88c-3.73,2.53-8.27,5.33-13.54,8.56-26.09,16-65.52,40.27-84.31,82.07-12.27,27.29-21.19,51.63-28.35,71.18-3.12,8.54-6.31,17.24-9,23.78-9.22-45.71,7.87-86.34,24.27-112.82,19.85-32.05,50.65-62.39,82.38-81.14L322,259.2c-33.34,13.4-72.37,58-103.74,93.92-15.87,18.17-35.2,40.28-44.17,45.84a55.76,55.76,0,0,1,.36-9.86C295.91,210.56,440.36,109,603.8,87.34a501.27,501.27,0,0,1,246,29.88c-.18,13.09-.12,25.07,0,40.89,0,8.22.09,17.56.11,28.74C775.34,147.55,614.44,132.56,548.13,172Z" transform="translate(-7.98 -7.98)"/><path class="cls-60" d="M496.56,611.53c-30.78.32-83.82.4-136.27.39a98.21,98.21,0,0,0-7.54-30.63,148,148,0,0,0-21.09-35.76,121.87,121.87,0,0,0-29.28-27.11Q286.36,508,270.31,508a31.75,31.75,0,0,0-17.25,5.19q-8.19,5.19-8.19,20.57a51.86,51.86,0,0,0,7.67,27.3,83,83,0,0,0,20.56,22.69,123.84,123.84,0,0,0,59.61,24.61,26.62,26.62,0,0,1,.52,3.27c0,.06,0,.17,0,.23-32.36,0-62.87-.09-86-.14a145,145,0,0,1-19.83-31l-7,6.15a154.78,154.78,0,0,0,12.88,24.85l-27.9-.08h-3.54l-2.47,2.55c-12.33,12.81-18,46-16.17,69.36,1.12,14.23,4.88,23.87,11.19,28.65,1.74,1.31,6.29,3,17.49,4.52C215.7,944.6,221.17,949,224.82,952c2,1.56,6.9,5.52,115.42,5.52q13.8,0,29.9-.08c93.82-.54,98.76-3.36,101.14-4.72,4.67-2.68,10-5.71,13-119.33.93-35.1,1.65-93.86-.68-118l13.41-.61,7.07-.33.8-7c6.15-54,5.93-85.12-.67-92.43A10.11,10.11,0,0,0,496.56,611.53Zm-187.9-24.28a110.93,110.93,0,0,1-21.44-14.61,85.43,85.43,0,0,1-16.91-19.42q-6.62-10.58-6.62-21.34,0-4.23,1.4-5.77c.93-1,2.44-1.54,4.53-1.54q8,0,16.73,6.35a94.32,94.32,0,0,1,17.08,16.53,139.53,139.53,0,0,1,15,22.5,144.88,144.88,0,0,1,10.46,24.23Q319.82,593,308.66,587.25ZM332,628.51a38.94,38.94,0,0,1-2.05,5.66,22.44,22.44,0,0,1-8,9.23q-5.56,3.84-15.33,3.84-14.64,0-29.46-9a108,108,0,0,1-13.46-9.8C283.65,628.45,307.26,628.49,332,628.51ZM199.83,682.24c-1.51-19.28,3-43.79,9.6-54l36.31.1a113.78,113.78,0,0,0,31.72,25.79,77,77,0,0,0,36.78,9.62q22.31,0,34.33-13.27a45.22,45.22,0,0,0,10.92-22h4.18c.57,14.19.06,42-.82,74.25-82,1.82-149,1.11-158.36-3.84C203.26,698,200.7,693.32,199.83,682.24Zm36.81,256.11c-3.56-23.93-6.73-142.12-8-220,15.83,1.18,38.67,2,71.66,2,17.64,0,38.23-.24,62.12-.78-.36,12.3-.75,24.95-1.14,37.53-3.63,116.17-4.15,163.46-1.64,183.68C298.38,941,250.61,939.8,236.64,938.35Zm224.48-.13c-9.52,1.06-37.92,2.16-85.07,2.51-3.23-22.18-.36-114.39,1.78-183.08.42-13.28.82-26.17,1.18-38.46,25.68-.68,54.9-1.69,88.14-3.1C471,749.34,466.68,911.69,461.12,938.22Zm28-239.73-15.39.67a6.85,6.85,0,0,0-.79,0v0c-31.42,1.32-63.24,2.42-93.49,3.2.88-32.35,1.34-58.83.77-73.86,43.1,0,84.65-.09,111.81-.34C493.79,638.93,492.12,670.1,489.16,698.49Z" transform="translate(-7.98 -7.98)"/><path class="cls-60" d="M416.28,675.38q-34.54,0-53.15-18.62t-18.62-46.68q0-23.73,12.14-50.45a204.85,204.85,0,0,1,32.65-50.19,183.33,183.33,0,0,1,45.33-38q24.81-14.56,49.64-14.57A52.8,52.8,0,0,1,511,464.12q12.67,7.28,12.68,28.87a67.8,67.8,0,0,1-11.87,38.31Q499.92,549.11,480,563.14a192.33,192.33,0,0,1-44,22.93,202.38,202.38,0,0,1-48.29,11.6,34.74,34.74,0,0,0-.81,4.59q-.27,2.43-.27,7.82a92.81,92.81,0,0,0,.81,9.45,43.66,43.66,0,0,0,4.59,14.3q3.76,7.56,12.41,12.95t23.74,5.39q22.67,0,45.6-12.68a182.51,182.51,0,0,0,43.17-33.72,202.23,202.23,0,0,0,33.73-46.95l10.79,8.63a203.42,203.42,0,0,1-37.51,56.67,174.77,174.77,0,0,1-50.72,37.77A129.09,129.09,0,0,1,416.28,675.38Zm-22.66-97.67q14-1.62,31.29-9.72a173.85,173.85,0,0,0,33.19-20.5,124.27,124.27,0,0,0,26.17-27.25q10.25-14.83,10.25-29.95,0-5.94-2.15-8.1c-1.45-1.43-3.78-2.15-7-2.15q-12.42,0-25.9,8.9A140.08,140.08,0,0,0,433,512.14a195.43,195.43,0,0,0-23.21,31.57A193.12,193.12,0,0,0,393.62,577.71Z" transform="translate(-7.98 -7.98)"/></svg>