<svg id="Camada_1" data-name="Camada 1" xmlns="http://www.w3.org/2000/svg" xmlns:xlink="http://www.w3.org/1999/xlink" viewBox="0 0 1019 403.9"><defs><style>.cls-1{fill:url(#Gradiente_sem_nome_25);}.cls-2{fill:url(#Gradiente_sem_nome_25-2);}.cls-3{fill:url(#Gradiente_sem_nome_8);}.cls-4{fill:url(#Gradiente_sem_nome_8-2);}.cls-5{fill:url(#Gradiente_sem_nome_8-3);}.cls-6{fill:url(#Gradiente_sem_nome_8-4);}.cls-7{fill:url(#Gradiente_sem_nome_8-5);}.cls-8{font-size:59.78px;fill:#5c5c5b;font-family:RobotoCondensed-Regular, Roboto Condensed;}.cls-9{letter-spacing:-0.01em;}.cls-10{letter-spacing:0em;}</style><linearGradient id="Gradiente_sem_nome_25" x1="712.54" y1="106.39" x2="1027.13" y2="106.39" gradientUnits="userSpaceOnUse"><stop offset="0" stop-color="#5c5c5b"/><stop offset="0.49" stop-color="#656564"/><stop offset="1" stop-color="#737372"/></linearGradient><linearGradient id="Gradiente_sem_nome_25-2" x1="723.88" y1="307.15" x2="868.66" y2="307.15" xlink:href="#Gradiente_sem_nome_25"/><linearGradient id="Gradiente_sem_nome_8" x1="8.13" y1="206.68" x2="166.16" y2="206.68" gradientUnits="userSpaceOnUse"><stop offset="0" stop-color="#ed6d1e"/><stop offset="1" stop-color="#f6a13d"/></linearGradient><linearGradient id="Gradiente_sem_nome_8-2" x1="142.48" y1="218.26" x2="728.05" y2="218.26" xlink:href="#Gradiente_sem_nome_8"/><linearGradient id="Gradiente_sem_nome_8-3" x1="906.46" y1="199.95" x2="988.41" y2="199.95" xlink:href="#Gradiente_sem_nome_8"/><linearGradient id="Gradiente_sem_nome_8-4" x1="890.23" y1="301.45" x2="916.57" y2="301.45" xlink:href="#Gradiente_sem_nome_8"/><linearGradient id="Gradiente_sem_nome_8-5" x1="795.55" y1="233.23" x2="891.76" y2="233.23" xlink:href="#Gradiente_sem_nome_8"/></defs><path class="cls-1" d="M1027.13,29.14l-3.08-1.21A229.88,229.88,0,0,0,909.58,13.57c-74.89,10-140.86,56.3-196.07,137.77l-.5.73-.11.88c-.69,5.62-.81,11.62,3.57,13.58,5,2.22,10.51-2.55,21.58-14.91-5,13.1-6.84,27.54-3.1,42.52.55,2.2,1.7,6.77,5.65,7h.32c4.39,0,6.24-5.06,11.5-19.41,3.14-8.57,7-19.22,12.37-31.09,6.45-14.35,19.68-23.81,30.12-30.4-4.94,11-8.45,21.87-6.42,38.46,2.78,22.64,24.17,42.83,44.11,41.59l6.92-.45-4.23-5.48c-19.71-25.53-25-45.6-14.55-55.07,9.89-9,32.2-6.52,44.22,4.83,10.88,10.27,10.06,24.39-2.32,39.75l-1.8,2.23,1.72,2.29c5.36,7.15,11.43,6.19,14.58,5,13.88-5.31,25.3-35,24.06-49.23-1-11.15-5.81-21.42-10.49-31.35s-9.65-20.45-10.73-32c-.62-6.56,2.54-11.81,9.65-16,28.76-17.12,104.2-8.68,131.72,9.76l5.73,3.84v-6.9c0-8,0-14.11-.06-19.25,0-8-.07-13.75.06-20.53ZM885.86,58.44c-9.53,5.68-14.1,13.65-13.22,23.07C873.84,94.33,879,105.32,884,116c4.61,9.77,9,19,9.82,28.83,1.07,12.32-9.75,38-19.35,41.71a3.94,3.94,0,0,1-4.16-.56c18.37-24.85,6-41.19-.33-47.18-15-14.18-41.37-16.58-54.22-4.94-7.57,6.85-15.9,23.31,8.67,58.28-13.65-3.67-26.72-18.51-28.66-34.3-2.18-17.74,2.68-28,8.83-41,.74-1.56,1.49-3.15,2.25-4.8l5.59-12.08-11,7.49c-1.65,1.12-3.67,2.36-6,3.8-11.58,7.11-29.07,17.86-37.4,36.4-5.44,12.1-9.39,22.9-12.57,31.57-1.39,3.79-2.8,7.65-4,10.55-4.09-20.28,3.49-38.3,10.76-50a112.54,112.54,0,0,1,36.54-36l-3.25-6.59c-14.79,5.94-32.1,25.74-46,41.66-7,8-15.61,17.86-19.59,20.33a24.11,24.11,0,0,1,.16-4.38C774,75.53,838.06,30.5,910.55,20.88a222.26,222.26,0,0,1,109.12,13.25c-.08,5.81,0,11.12,0,18.14,0,3.65.05,7.79.05,12.75C986.64,47.59,915.27,40.94,885.86,58.44Z" transform="translate(-8.13 -11.65)"/><path class="cls-2" d="M863,253.38c-13.66.14-37.18.18-60.44.17A43.77,43.77,0,0,0,799.2,240a65.68,65.68,0,0,0-9.35-15.86,54.28,54.28,0,0,0-13-12,26,26,0,0,0-14.22-4.6,14.07,14.07,0,0,0-7.66,2.3c-2.42,1.53-3.63,4.58-3.63,9.12a23,23,0,0,0,3.4,12.11,37,37,0,0,0,9.12,10.07A55,55,0,0,0,790.31,252a10.72,10.72,0,0,1,.23,1.45.38.38,0,0,1,0,.1c-14.35,0-27.88,0-38.14-.06a64.4,64.4,0,0,1-8.79-13.77l-3.09,2.73a68.5,68.5,0,0,0,5.71,11l-12.37,0H732.3l-1.1,1.14c-5.47,5.68-8,20.38-7.17,30.76.49,6.31,2.16,10.59,5,12.71.77.58,2.79,1.33,7.76,2,1.66,101.08,4.09,103,5.71,104.34.87.69,3.06,2.45,51.19,2.45q6.12,0,13.26,0c41.62-.24,43.81-1.49,44.86-2.09,2.08-1.19,4.43-2.53,5.78-52.93.41-15.57.73-41.63-.3-52.32l5.94-.27,3.14-.15.35-3.12c2.74-24,2.63-37.75-.29-41A4.47,4.47,0,0,0,863,253.38Zm-83.35-10.77a49.08,49.08,0,0,1-9.5-6.48,37.8,37.8,0,0,1-7.5-8.61,17.67,17.67,0,0,1-2.94-9.47,3.93,3.93,0,0,1,.62-2.56,2.61,2.61,0,0,1,2-.68,12.72,12.72,0,0,1,7.42,2.82,41.75,41.75,0,0,1,7.58,7.33,61.39,61.39,0,0,1,6.64,10,64,64,0,0,1,4.64,10.74A27.38,27.38,0,0,1,779.64,242.61ZM790,260.91a16.19,16.19,0,0,1-.9,2.51,9.94,9.94,0,0,1-3.56,4.09,11.82,11.82,0,0,1-6.8,1.71,25,25,0,0,1-13.07-4,48.87,48.87,0,0,1-6-4.34Zm-58.6,23.83c-.67-8.55,1.34-19.42,4.25-23.93l16.11,0a50.52,50.52,0,0,0,14.07,11.44,34.18,34.18,0,0,0,16.31,4.26q9.9,0,15.23-5.88a20.09,20.09,0,0,0,4.84-9.75H804c.26,6.29,0,18.65-.36,32.93-36.36.81-66.06.5-70.24-1.7C732.9,291.74,731.76,289.66,731.38,284.74Zm16.32,113.6c-1.58-10.62-3-63-3.57-97.57,7,.52,17.15.89,31.79.89,7.82,0,17-.11,27.55-.35-.16,5.46-.34,11.07-.51,16.65-1.61,51.53-1.84,72.5-.72,81.47C775.09,399.51,753.9,399,747.7,398.34Zm99.57-.06c-4.23.47-16.82,1-37.74,1.11-1.43-9.84-.15-50.73.8-81.2.18-5.89.36-11.61.52-17.06,11.39-.3,24.35-.75,39.09-1.38C851.64,314.51,849.73,386.51,847.27,398.28ZM859.7,292l-6.82.3h-.35c-13.94.59-28,1.07-41.47,1.42.39-14.35.6-26.09.34-32.76,19.12,0,37.55,0,49.59-.15C861.76,265.53,861,279.36,859.7,292Z" transform="translate(-8.13 -11.65)"/><path class="cls-3" d="M159.78,175.69q6.38-10.11,6.38-24.21a38.76,38.76,0,0,0-6.78-22.75,56.43,56.43,0,0,0-17.83-16.23,91.61,91.61,0,0,0-24.08-9.85,103.38,103.38,0,0,0-25.54-3.32,116.91,116.91,0,0,0-23.41,2.39,170.17,170.17,0,0,0-21.68,5.86q-10,3.45-17.43,6.65a7.27,7.27,0,0,0,1.86,4.25,21.92,21.92,0,0,0,4.39,4.26c1.68,1.24,3,1.86,3.86,1.86,1.42,0,3.63-.84,6.65-2.52s6.92-3.64,11.71-5.86a81.66,81.66,0,0,1,17.29-5.45Q65.06,133.12,57,153.6T41.51,194.44Q34.19,214.8,27,236.75T11.58,284q-1.07,3.46-2.26,7.45a25.9,25.9,0,0,0-1.19,7.45c0,4.43,2.34,8.07,7,10.91a28.63,28.63,0,0,0,15,4.25q6.12-21.28,13.3-47.49T58.14,214h1.6q4.79,0,14.37-.8t21.68-2.93a155.36,155.36,0,0,0,24.34-6.38,102.15,102.15,0,0,0,22.75-11.18A56.3,56.3,0,0,0,159.78,175.69Zm-42.44,14a109.77,109.77,0,0,1-27,11,158.64,158.64,0,0,1-29.79,5.05q8-27.67,16.76-53.08a338.64,338.64,0,0,1,18.36-44,68.68,68.68,0,0,1,23.28,4.52A44.31,44.31,0,0,1,137,125.67q7,8.25,7.05,21.55A42.57,42.57,0,0,1,136.76,172,59.24,59.24,0,0,1,117.34,189.65Z" transform="translate(-8.13 -11.65)"/><path class="cls-4" d="M700,277.45q-14,12.1-27.27,12.11-7.44,0-10.91-4.53t-3.45-15.43a92.54,92.54,0,0,1,4.12-26.74,254.07,254.07,0,0,1,9.71-26.73h3.19q11.18-.27,23.42-1.07t26.87-2.13v-8.78q-9.85,1.08-19.29,1.47t-21.15.4H677q7.44-14.91,15.43-28.07t13.44-23q5.45-9.84,5.45-15.16a7,7,0,0,0-2.39-5.72,7.82,7.82,0,0,0-5.06-2c-3,0-6.47,2-10.38,6A98.4,98.4,0,0,0,681.1,154.4a265.14,265.14,0,0,0-13,23.55q-6.52,13.17-12.11,27.27l-5.72-.53c-1.86-.18-4.21-.44-7.05-.8v8.25a19.83,19.83,0,0,0,4.92,1.46,39,39,0,0,1,4.39.93A335.57,335.57,0,0,0,642,248.05c-.78,3.07-1.42,5.95-2,8.73-1.43,2.37-2.85,4.75-4.41,7.1a78.46,78.46,0,0,1-13.17,15.57q-6.91,6.12-13.3,6.12a6.56,6.56,0,0,1-4.39-1.73c-1.33-1.16-2-3.15-2-6a31.14,31.14,0,0,1,2.53-12q2.52-6.12,5.19-13a41.23,41.23,0,0,0,2.66-14.9,28.87,28.87,0,0,0-5.45-17q-5.46-7.72-16.9-7.72a35.37,35.37,0,0,0-18,5.19,84.92,84.92,0,0,0-17.16,13.43,158.81,158.81,0,0,0-15.16,17.56q2.12-8,3.32-14.23a54.89,54.89,0,0,0,1.2-9.45q0-8-9.31-8a16.56,16.56,0,0,0-8.12,2.13,21.23,21.23,0,0,0-5.72,4.26A76.82,76.82,0,0,1,519.2,243c-.7,2.72-1.47,5.36-2.25,8a99.27,99.27,0,0,1-13.31,17.29,89.94,89.94,0,0,1-21.28,16.63,46.12,46.12,0,0,1-22.48,6.25q-7.45,0-11.71-2.66a16.1,16.1,0,0,1-6.12-6.38,21.73,21.73,0,0,1-2.26-7.05,44.8,44.8,0,0,1-.4-4.66c0-1.77,0-3.06.13-3.86a16.84,16.84,0,0,1,.4-2.26,99.59,99.59,0,0,0,23.81-5.72,95,95,0,0,0,21.69-11.31,60,60,0,0,0,15.69-15.69A33.46,33.46,0,0,0,507,212.67q0-10.63-6.25-14.24a26.1,26.1,0,0,0-13.17-3.59q-12.26,0-24.48,7.19a90.41,90.41,0,0,0-22.35,18.75,101.73,101.73,0,0,0-16.1,24.74,67.88,67.88,0,0,0-5.09,16.11,45.32,45.32,0,0,1-4.08,4.11q-8,7.06-16.23,9.18a42.36,42.36,0,0,0,.79-5.05,58.27,58.27,0,0,0,.27-5.85,72.87,72.87,0,0,0-3.86-23.42q-3.85-11.43-7.71-21.68t-3.86-18.22a20.57,20.57,0,0,1,.66-5.86,12.87,12.87,0,0,0,.67-3.72,6.68,6.68,0,0,0-1.73-3.73q-1.47-1.59-4.66-1.59-4.79,0-8.38,4.39t-3.59,15v2.66a103.3,103.3,0,0,1-12.1,20.35,194.35,194.35,0,0,1-13.7,16.1,11.54,11.54,0,0,1-4,2.31l-1.89-1.51c-.59,1.12-1.25,2.19-1.87,3.29-.78.42-1.57.85-2.4,1.36a15.22,15.22,0,0,0-5.32,6.25,20.94,20.94,0,0,0-1.73,6.21c-1.69,2.07-3.45,4.09-5.31,6a89.78,89.78,0,0,1-21.29,16.63,46.12,46.12,0,0,1-22.48,6.25q-7.45,0-11.7-2.66a16,16,0,0,1-6.12-6.38,21.53,21.53,0,0,1-2.27-7.05c-.26-2.22-.39-3.77-.39-4.66,0-1.77,0-3.06.13-3.86a16.84,16.84,0,0,1,.4-2.26,99.59,99.59,0,0,0,23.81-5.72,94.69,94.69,0,0,0,21.68-11.31A60,60,0,0,0,317,231.56a33.45,33.45,0,0,0,5.85-18.89q0-10.63-6.25-14.24a26.1,26.1,0,0,0-13.17-3.59q-12.24,0-24.48,7.19a90.18,90.18,0,0,0-22.34,18.75,101.15,101.15,0,0,0-16.1,24.74,70.29,70.29,0,0,0-4.69,13.9,94.3,94.3,0,0,1-10.34,11.25,71.9,71.9,0,0,1-13.57,10,27.22,27.22,0,0,1-13.3,3.86,8.86,8.86,0,0,1-4.66-1.2q-2-1.19-2-4.92c0-3.36,1.15-7.36,3.46-12s4.61-9.58,6.91-14.9a39.2,39.2,0,0,0,3.46-15.7q0-8.51-4.25-14.1a41,41,0,0,0-9.85-9.31q-5.58-3.72-10-6.52c-2.93-1.86-4.49-3.76-4.66-5.72.35-1.06.93-2.75,1.73-5a17.88,17.88,0,0,0,1.2-4.79,16.27,16.27,0,0,0-1.47-4.92c-1-2.4-2.53-3.59-4.65-3.59-2.66,0-5.42,2-8.25,6.12a22.4,22.4,0,0,0-4.26,13,9.7,9.7,0,0,0,2.66,7.18,295.2,295.2,0,0,1-11.7,28.47q-6.14,12.78-9.85,19.69l4,7.72q4.53-7.72,11.84-21.42a282.25,282.25,0,0,0,13.17-28.34,34.08,34.08,0,0,1,9.31,6.79,14.15,14.15,0,0,1,4,10.24q0,6.39-3.85,14.63t-7.59,16.77a40,40,0,0,0-3.72,16q0,8.78,6.12,14t16,5.18q12,0,23.68-7.05a88,88,0,0,0,19.41-16.08,30.54,30.54,0,0,0,8.92,18.74q9.18,9.18,26.21,9.18A63.68,63.68,0,0,0,298,295.94a86,86,0,0,0,25-18.62c.72-.76,1.36-1.6,2.06-2.39a45.72,45.72,0,0,0,2.85,10.24A30.55,30.55,0,0,0,339.49,299q8.11,5.46,21.41,5.46a44.88,44.88,0,0,0,22-5.33,30.42,30.42,0,0,0,14-16.22A41.51,41.51,0,0,0,418.71,272a30.87,30.87,0,0,0,9.11,21.4q9.18,9.18,26.2,9.18a63.68,63.68,0,0,0,28.07-6.65,86,86,0,0,0,25-18.62c.28-.3.53-.63.81-.93-.37.9-.73,1.81-1.08,2.66a76.93,76.93,0,0,0-3.06,8.11,17.33,17.33,0,0,0,7.72,6,26.59,26.59,0,0,0,9.57,1.73q5.06-8.52,12-19.16t14.76-20.48A98.32,98.32,0,0,1,564,238.87q8.38-6.51,16.37-6.51a10,10,0,0,1,6.51,2.26q2.8,2.26,2.8,8.11a40.57,40.57,0,0,1-1.86,11.71q-1.87,6.12-3.73,12.1a38.16,38.16,0,0,0-1.86,11.31A17.38,17.38,0,0,0,587.71,291q5.46,5.19,15.83,5.19a31.33,31.33,0,0,0,19.29-6.52A67.22,67.22,0,0,0,638,273.21c0,.65-.09,1.36-.09,2q0,14.1,7.18,21t18.89,6.92a46.94,46.94,0,0,0,24.75-7.32,86.65,86.65,0,0,0,22.21-20.09,127,127,0,0,0,17.16-28.47l-3.72-2.66Q713.95,265.35,700,277.45ZM450.83,237.68a96.14,96.14,0,0,1,11.44-15.57,69.35,69.35,0,0,1,13-11.44q6.65-4.38,12.77-4.39a4.76,4.76,0,0,1,3.46,1.07c.7.71,1.06,2,1.06,4q0,7.46-5.05,14.76a61.61,61.61,0,0,1-12.91,13.44,85.91,85.91,0,0,1-16.36,10.11,50.7,50.7,0,0,1-15.43,4.79A95.14,95.14,0,0,1,450.83,237.68Zm-184.1,0a95.55,95.55,0,0,1,11.44-15.57,69.31,69.31,0,0,1,13-11.44q6.65-4.38,12.77-4.39a4.75,4.75,0,0,1,3.46,1.07c.71.71,1.07,2,1.07,4q0,7.46-5.06,14.76a61.32,61.32,0,0,1-12.9,13.44,86.22,86.22,0,0,1-16.36,10.11,50.75,50.75,0,0,1-15.44,4.79A94.51,94.51,0,0,1,266.73,237.68Zm102.16,52.41a19.13,19.13,0,0,1-9.85,2.66q-9.84,0-14.9-7.72a29.54,29.54,0,0,1-5.05-16.49q0-6.39,3.72-7.18a59.12,59.12,0,0,0,13.57,12.5,54.44,54.44,0,0,0,19.69,8.51A19,19,0,0,1,368.89,290.09Zm10-20.09a20.24,20.24,0,0,1-.66,4.39,50.4,50.4,0,0,1-18.89-9,49.32,49.32,0,0,1-12.51-13.57,114.72,114.72,0,0,0,12-15.43q6.38-9.58,11.17-17.83,2.93,12.24,5.85,23.94a107.45,107.45,0,0,1,3.2,23.68C379,267,379,268.32,378.86,270Z" transform="translate(-8.13 -11.65)"/><path class="cls-5" d="M986.15,120.27A7.17,7.17,0,0,0,981,118q-5.06,0-10.78,6.65a100.25,100.25,0,0,0-11.84,18.23q-6.12,11.56-12.5,26.07t-12.77,30.46q-6.39,16-12.24,31.13-2.93,7.45-6.25,16.63t-5.59,18a75.33,75.33,0,0,0-2.53,15.69l1.6.54,1.6.53q5-7.18,12.77-20.22t16.49-29.4q8.79-16.36,17.56-33.39t16-32.19q7.18-15.16,11.58-26.07T988.41,126A7.79,7.79,0,0,0,986.15,120.27Z" transform="translate(-8.13 -11.65)"/><path class="cls-6" d="M914.05,292.54a10.74,10.74,0,0,0-6.52-1.86,20.57,20.57,0,0,0-11.84,3.72q-5.46,3.74-5.46,8.78c0,3.2,1.07,5.5,3.2,6.92a13.11,13.11,0,0,0,7.45,2.13,15.7,15.7,0,0,0,10.91-4.39q4.79-4.39,4.78-8.91T914.05,292.54Z" transform="translate(-8.13 -11.65)"/><path class="cls-7" d="M887,230a89.65,89.65,0,0,1-15,20.82,80.79,80.79,0,0,1-19.15,15,41.54,41.54,0,0,1-20.23,5.63q-6.71,0-10.53-2.4a14.39,14.39,0,0,1-5.5-5.74,19.43,19.43,0,0,1-2-6.34,40.35,40.35,0,0,1-.35-4.19c0-1.59,0-2.75.11-3.47a15.44,15.44,0,0,1,.36-2,89.79,89.79,0,0,0,21.42-5.14,85.55,85.55,0,0,0,19.51-10.17,54,54,0,0,0,14.12-14.13,30,30,0,0,0,5.27-17q0-9.57-5.63-12.8a23.37,23.37,0,0,0-11.84-3.23q-11,0-22,6.46a81.26,81.26,0,0,0-20.11,16.87,91.08,91.08,0,0,0-14.48,22.26q-5.38,11.85-5.38,22.38,0,12.45,8.25,20.7t23.58,8.26a57.37,57.37,0,0,0,25.25-6A77.68,77.68,0,0,0,875.13,259a90.2,90.2,0,0,0,16.63-25.13Zm-62.47-6.7a86.53,86.53,0,0,1,10.29-14A62.15,62.15,0,0,1,846.53,199q6-4,11.49-3.95a4.32,4.32,0,0,1,3.11.95c.63.64,1,1.84,1,3.59a23.22,23.22,0,0,1-4.54,13.29A55.23,55.23,0,0,1,845.93,225a76.88,76.88,0,0,1-14.72,9.1,45.85,45.85,0,0,1-13.88,4.31A85,85,0,0,1,824.51,223.3Z" transform="translate(-8.13 -11.65)"/><text class="cls-8" transform="translate(82.78 387.7)">Mesmo distante, p<tspan class="cls-9" x="435.42" y="0">r</tspan><tspan class="cls-10" x="453.05" y="0">esente.</tspan></text></svg>